<svg viewBox="0 -48 512 512" xmlns="http://www.w3.org/2000/svg">
    <path fill ="#FFFFFF" d="m448.738281 0h-15v70.402344h-307.21875v-7.140625c0-34.882813-28.378906-63.261719-63.257812-63.261719-34.882813 0-63.261719 28.378906-63.261719 63.261719v290.46875c0 34.878906 28.378906 63.257812 63.261719 63.257812h385.476562c34.882813 0 63.261719-28.375 63.261719-63.257812v-290.46875c0-34.882813-28.378906-63.261719-63.261719-63.261719zm-385.476562 30c18.339843 0 33.257812 14.921875 33.257812 33.261719v236.6875c-9.671875-6-21.0625-9.480469-33.257812-9.480469-12.199219 0-23.589844 3.480469-33.261719 9.480469v-236.6875c0-18.339844 14.921875-33.261719 33.261719-33.261719zm-33.261719 323.730469c0-18.339844 14.921875-33.261719 33.261719-33.261719 18.339843 0 33.257812 14.921875 33.257812 33.261719 0 18.339843-14.917969 33.257812-33.257812 33.257812-18.339844 0-33.261719-14.917969-33.261719-33.257812zm418.738281 33.257812h-331.699219c6.003907-9.667969 9.480469-21.0625 9.480469-33.257812v-253.328125h307.21875v220.066406h15c18.339844 0 33.261719 14.921875 33.261719 33.261719 0 18.339843-14.921875 33.257812-33.261719 33.257812zm33.261719-87.050781c-5.570312-3.457031-11.71875-6.074219-18.261719-7.671875v-258.6875c10.828125 5.492187 18.261719 16.734375 18.261719 29.683594zm0 0"/>
</svg>