<?xml version="1.0" encoding="iso-8859-1"?>
<!-- Generator: Adobe Illustrator 19.0.0, SVG Export Plug-In . SVG Version: 6.00 Build 0)  -->
<svg version="1.1" id="Capa_1" xmlns="http://www.w3.org/2000/svg" xmlns:xlink="http://www.w3.org/1999/xlink" x="0px" y="0px"
	 viewBox="0 0 512 512" style="enable-background:new 0 0 512 512;" xml:space="preserve">
<g>
	<g>
		<path fill = "#FFFFFF" d="M507.784,188.296l-53.504-37.927l-27.921-74.124c-0.91-2.415-2.718-4.385-5.046-5.498l-146-69.771
			c-3.015-1.439-6.55-1.28-9.423,0.428l-82.998,49.319c-1.54,0.915-2.805,2.226-3.665,3.797l-46.064,84.206L3.674,244.554
			c-2.325,1.9-3.673,4.742-3.673,7.744v159.481c0,1.519,0.346,3.018,1.012,4.383l0.106,0.218l43.894,90.002
			c1.702,3.49,5.226,5.618,8.985,5.618c0.716,0,86.497-18.895,86.497-18.895l56.404,18.4c1.001,0.327,2.048,0.493,3.102,0.493h250
			c3.554,0,6.841-1.887,8.634-4.955l52-89.018c0.894-1.531,1.365-3.271,1.365-5.044V287.737v-91.283
			C512.001,193.212,510.429,190.171,507.784,188.296z M195.461,66.519l64.531-38.346l-1.849,66.579l-63.071,45.05l-38.418-2.343
			L195.461,66.519z M20.001,287.565l25.43,43.461l-25.43,43.924V287.565z M305.827,491.999l57.811-24.021l48.503,24.021H305.827z
			 M492.001,410.275l-44.835,76.752l-78.727-38.989c-2.589-1.282-5.607-1.382-8.275-0.273L253.702,492h-52.111l-57.488-18.754
			c-1.699-0.554-3.516-0.642-5.262-0.257l-79.306,17.545L21.43,412.4c0,0,44.648-77.18,44.817-77.589
			c1.181-2.864,0.976-6.145-0.614-8.862l-42.038-71.846l119.238-97.449l54.56,3.327c2.316,0.141,4.511-0.571,6.421-1.844l70-50
			c2.548-1.82,4.097-4.729,4.184-7.859l2.08-74.857l128.983,61.637l25.921,68.815l-21.351,32.654
			c-2.429,3.715-2.119,8.588,0.763,11.964l77.607,90.933V410.275z M492.001,260.615l-57.532-67.411l14.46-22.114l43.072,30.533
			V260.615z"/>
	</g>
</g>

</svg>
